<svg height="512pt" viewBox="0 0 512 512" width="512pt" xmlns="http://www.w3.org/2000/svg"><path d="m512 256c0 141.386719-114.613281 256-256 256s-256-114.613281-256-256 114.613281-256 256-256 256 114.613281 256 256zm0 0" fill="#68fcdf"/><path d="m512 256c0 26.050781-3.890625 51.191406-11.128906 74.871094-32.011719 104.847656-129.542969 181.128906-244.871094 181.128906-104.558594 0-194.488281-62.699219-234.230469-152.550781-14-31.628907-21.769531-66.628907-21.769531-103.449219 0-46.21875 12.25-89.570312 33.679688-127 44.121093 77.070312 127.160156 129 222.320312 129s178.210938-51.929688 222.320312-129c21.429688 37.429688 33.679688 80.78125 33.679688 127zm0 0" fill="#10e2c4"/><path d="m445.203125 223.132812v193.238282c0 10.246094-8.308594 18.558594-18.558594 18.558594h-304.574219c-10.246093 0-18.558593-8.308594-18.558593-18.558594v-193.238282c0-10.246093 8.308593-18.558593 18.558593-18.558593h304.574219c10.25 0 18.558594 8.3125 18.558594 18.558593zm0 0" fill="#535e89"/><path d="m414.84375 204.574219v182.277343c0 10.246094-8.3125 18.558594-18.5625 18.558594h-292.769531v-182.277344c0-10.246093 8.3125-18.558593 18.558593-18.558593zm0 0" fill="#323b5a"/><path d="m445.203125 223.132812v48.625h-341.691406v-48.625c0-10.246093 8.3125-18.558593 18.558593-18.558593h304.574219c10.25 0 18.558594 8.3125 18.558594 18.558593zm0 0" fill="#359cef"/><path d="m414.84375 204.574219v67.183593h-311.332031v-48.625c0-10.246093 8.3125-18.558593 18.558593-18.558593zm0 0" fill="#178cda"/><path d="m155.496094 237.046875c0 7.953125-6.445313 14.398437-14.398438 14.398437-7.949218 0-14.394531-6.445312-14.394531-14.398437 0-7.949219 6.445313-14.394531 14.394531-14.394531 7.953125 0 14.398438 6.445312 14.398438 14.394531zm0 0" fill="#ebf0f3"/><path d="m196.769531 237.046875c0 7.953125-6.449219 14.398437-14.398437 14.398437-7.953125 0-14.398438-6.445312-14.398438-14.398437 0-7.949219 6.445313-14.394531 14.398438-14.394531 7.949218 0 14.398437 6.445312 14.398437 14.394531zm0 0" fill="#ebf0f3"/><path d="m238.039062 237.046875c0 7.953125-6.445312 14.398437-14.394531 14.398437-7.953125 0-14.398437-6.445312-14.398437-14.398437 0-7.949219 6.445312-14.394531 14.398437-14.394531 7.949219 0 14.394531 6.445312 14.394531 14.394531zm0 0" fill="#ebf0f3"/><path d="m382.917969 155.300781v193.238281c0 10.246094-8.3125 18.558594-18.5625 18.558594h-304.570313c-10.25 0-18.5625-8.308594-18.5625-18.558594v-193.238281c0-10.246093 8.3125-18.558593 18.5625-18.558593h304.570313c10.25 0 18.5625 8.3125 18.5625 18.558593zm0 0" fill="#d0f6ff"/><path d="m382.917969 155.300781v193.238281c0 10.246094-8.3125 18.558594-18.5625 18.558594h-154.09375v-230.355468h154.09375c10.25 0 18.5625 8.3125 18.5625 18.558593zm0 0" fill="#fff"/><path d="m382.917969 155.300781v48.625h-341.695313v-48.625c0-10.246093 8.3125-18.558593 18.5625-18.558593h304.570313c10.25 0 18.5625 8.3125 18.5625 18.558593zm0 0" fill="#dd1265"/><path d="m382.917969 155.300781v48.625h-172.65625v-67.183593h154.09375c10.25 0 18.5625 8.3125 18.5625 18.558593zm0 0" fill="#ff3445"/><path d="m91.132812 171.296875c0 7.949219-6.445312 14.394531-14.398437 14.394531-7.949219 0-14.394531-6.445312-14.394531-14.394531 0-7.953125 6.445312-14.398437 14.394531-14.398437 7.953125 0 14.398437 6.445312 14.398437 14.398437zm0 0" fill="#ffe955"/><path d="m132.402344 171.296875c0 7.949219-6.445313 14.394531-14.394532 14.394531-7.953124 0-14.398437-6.445312-14.398437-14.394531 0-7.953125 6.445313-14.398437 14.398437-14.398437 7.949219 0 14.394532 6.445312 14.394532 14.398437zm0 0" fill="#ffe955"/><path d="m173.675781 171.296875c0 7.949219-6.445312 14.394531-14.398437 14.394531-7.949219 0-14.394532-6.445312-14.394532-14.394531 0-7.953125 6.445313-14.398437 14.394532-14.398437 7.953125 0 14.398437 6.445312 14.398437 14.398437zm0 0" fill="#ffe955"/><g fill="none" stroke-miterlimit="10"><path d="m70.902344 274.898438h102.417968" stroke="#323b5a" stroke-width="13.8576"/><path d="m70.902344 302.613281h102.417968" stroke="#323b5a" stroke-width="13.8576"/><path d="m70.902344 330.328125h102.417968" stroke="#323b5a" stroke-width="13.8576"/><path d="m298.347656 282.925781v133.585938" stroke="#535e89" stroke-width="18.232"/></g><path d="m319.308594 406.699219v93.710937c0 1.308594-.148438 2.589844-.449219 3.808594-6.738281 1.703125-13.578125 3.140625-20.519531 4.300781-5.710938.941407-11.480469 1.710938-17.300782 2.269531-2.289062-2.839843-3.660156-6.449218-3.660156-10.378906v-93.710937c0-9.167969 7.429688-16.589844 16.589844-16.589844h8.75c9.160156 0 16.589844 7.421875 16.589844 16.589844zm0 0" fill="#359cef"/><path d="m374.007812 282.921875c0 41.789063-33.871093 75.664063-75.664062 75.664063-41.777344 0-75.652344-33.875-75.652344-75.664063 0-41.78125 33.871094-75.65625 75.652344-75.65625 41.792969 0 75.664062 33.875 75.664062 75.65625zm0 0" fill="#535e89"/><path d="m357.003906 282.921875c0 32.390625-26.265625 58.65625-58.660156 58.65625s-58.65625-26.265625-58.65625-58.65625c0-27.332031 18.683594-50.285156 43.972656-56.808594 4.691406-1.203125 9.617188-1.851562 14.683594-1.851562 19.210938.011719 36.257812 9.234375 46.964844 23.496093 7.34375 9.800782 11.695312 21.964844 11.695312 35.164063zm0 0" fill="#d0f6ff"/><path d="m357.003906 282.921875c0 32.390625-26.265625 58.65625-58.660156 58.65625v-117.316406c19.210938.011719 36.257812 9.238281 46.964844 23.496093 7.34375 9.800782 11.695312 21.964844 11.695312 35.164063zm0 0" fill="#fff"/><path d="m319.308594 406.699219v93.710937c0 1.308594-.148438 2.589844-.449219 3.808594-6.738281 1.703125-13.578125 3.140625-20.519531 4.300781v-118.410156h4.378906c9.160156 0 16.589844 7.421875 16.589844 16.589844zm0 0" fill="#178cda"/></svg>